# xmcd CD database file
#
# Track frame offsets:
#	150
#	9390
#	21565
#	35448
#	53962
#	65941
#	77541
#	87185
#	97900
#	110473
#	120469
#	131461
#	149397
#	159229
#	176202
#	190564
#	200492
#	213126
#
# Disc length: 3026 seconds
#
# Revision: 1
# Processed by: cddbd v1.5.2PL0 Copyright (c) Steve Scherf et al.
# Submitted via: CDex 1.51
#
DISCID=ef0bd012
DTITLE=Nev Nicholls - The Great Nev Nicholls
DYEAR=2004
DGENRE=Country
TTITLE0=Show Me The Way To The Circus
TTITLE1=Take Me To The Country
TTITLE2=She'll Be Right
TTITLE3=Country Music Turns Me On
TTITLE4=Two Beers Away
TTITLE5=Hitchin A Ride
TTITLE6=No Country Music On The Jukebox
TTITLE7=Havin Fun At The  601
TTITLE8=Darlin' On Your Way out
TTITLE9=Better Move It On Home
TTITLE10=Silverwater Holiday
TTITLE11=I Wish I could Sing Like Johnny Cash
TTITLE12=Where Do We Go From Here
TTITLE13=One of Those 
TTITLE14=Do What You Wanna Do
TTITLE15=Runnin With The Wind
TTITLE16=Heaven
TTITLE17=San Angelo "featuring Phil Emmanuel"
EXTD=YEAR: 2004
EXTT0=
EXTT1=
EXTT2=
EXTT3=
EXTT4=
EXTT5=
EXTT6=
EXTT7=
EXTT8=
EXTT9=
EXTT10=
EXTT11=
EXTT12=
EXTT13=
EXTT14=
EXTT15=
EXTT16=
EXTT17=
PLAYORDER=
